<svg xmlns="http://www.w3.org/2000/svg" xmlns:xlink="http://www.w3.org/1999/xlink" width="29.4" height="29.4" viewBox="0 0 29.4 29.4"><defs><style>.a,.c,.d{fill:none;}.b{clip-path:url(#a);}.c{stroke:#41d3bd;}.c,.d{stroke-linecap:round;stroke-linejoin:round;stroke-miterlimit:10;stroke-width:1.4px;}.d{stroke:#999;}</style><clipPath id="a"><rect class="a" width="29.4" height="29.4"/></clipPath></defs><g class="b"><circle class="c" cx="2.897" cy="2.897" r="2.897" transform="translate(11.803 0.7)"/><path class="c" d="M38.9,27.1v5.745H36" transform="translate(-18.403 -13.8)"/><path class="c" d="M24,39l.966,9.655h3.862L29.793,39" transform="translate(-12.197 -19.955)"/><path class="c" d="M18,27.1v5.745h2.9" transform="translate(-9.093 -13.8)"/><path class="c" d="M29.586,20.793a5.793,5.793,0,1,0-11.586,0" transform="translate(-9.093 -7.541)"/><circle class="d" cx="2.897" cy="2.897" r="2.897" transform="translate(20.976 2.631)"/><path class="d" d="M44,42.379l.966,4.345h2.9L49.31,39" transform="translate(-22.541 -19.955)"/><path class="d" d="M56.931,31.1v3.814H55" transform="translate(-28.231 -15.869)"/><path class="d" d="M53.828,24.793C53.828,21.607,52.186,19,49,19" transform="translate(-25.128 -9.61)"/><path class="d" d="M5,7.9A2.9,2.9,0,1,0,7.9,5,2.905,2.905,0,0,0,5,7.9Z" transform="translate(-2.369 -2.369)"/><path class="d" d="M5,39l1.448,7.724h2.9l.966-4.345" transform="translate(-2.369 -19.955)"/><path class="d" d="M1,31.1v3.814H2.931" transform="translate(-0.3 -15.869)"/><path class="d" d="M1,24.793C1,21.607,2.641,19,5.828,19" transform="translate(-0.3 -9.61)"/></g></svg>