<svg xmlns="http://www.w3.org/2000/svg" width="22.4" height="20.952" viewBox="0 0 22.4 20.952"><defs><style>.a{fill:none;stroke:#fff;stroke-linecap:round;stroke-linejoin:round;stroke-miterlimit:10;stroke-width:1.4px;}</style></defs><g transform="translate(-0.3 -0.3)"><path class="a" d="M7.481,14.4H9.328c4.6,0,8.328-2.969,8.328-6.7,0-3.693-3.729-6.7-8.328-6.7S1,4.005,1,7.7a6.03,6.03,0,0,0,3.259,5.25,6.706,6.706,0,0,1-1.81,3.983A7.875,7.875,0,0,0,7.481,14.4Z"/><path class="a" d="M33.224,19A5.187,5.187,0,0,1,35.4,22.8a6.03,6.03,0,0,1-3.259,5.25,6.706,6.706,0,0,0,1.81,3.983A7.875,7.875,0,0,1,28.916,29.5H27.069A8.382,8.382,0,0,1,22,28.052" transform="translate(-13.397 -11.483)"/><line class="a" x2="7.966" transform="translate(5.309 6.431)"/><line class="a" x2="6.155" transform="translate(5.309 9.328)"/></g></svg>