<svg xmlns="http://www.w3.org/2000/svg" width="60.712" height="60.728" viewBox="0 0 60.712 60.728"><defs><style>.a,.b{fill:none;stroke-linecap:round;stroke-linejoin:round;stroke-miterlimit:10;stroke-width:2px;}.a{stroke:#41d3bd;}.b{stroke:#999;}</style></defs><g transform="translate(1.071 1.066)"><path class="a" d="M22,133.125v-4.042A8.083,8.083,0,0,1,30.082,121h0a8.083,8.083,0,0,1,8.083,8.082v4.042" transform="translate(-0.783 -105.846)"/><path class="b" d="M59.183,130.345a29.3,29.3,0,1,1-4.118-10.713" transform="translate(-1 -106)"/><path class="a" d="M36.166,149.167H24.042A4.019,4.019,0,0,1,20,145.125V133H40.209v12.125a4.019,4.019,0,0,1-4.043,4.042Z" transform="translate(-0.804 -105.721)"/><path class="b" d="M46.174,120.093H55.09V111" transform="translate(-0.532 -105.95)"/></g></svg>