<svg xmlns="http://www.w3.org/2000/svg" width="30.4" height="35.727" viewBox="0 0 30.4 35.727"><defs><style>.a,.b{fill:none;}.a{stroke:#999;}.a,.b,.c{stroke-linecap:round;stroke-linejoin:round;stroke-miterlimit:10;stroke-width:1.4px;}.b,.c{stroke:#41d3bd;}.c{fill:#fff;}</style></defs><g transform="translate(-0.3 -0.3)"><rect class="a" width="17.163" height="9.469" transform="translate(12.837 21.122)"/><path class="a" d="M36.469,10.469H27V1Z" transform="translate(-10.612)"/><path class="b" d="M25,39h1.184c.651,0,1.184.592,1.184,1.48s-.533,1.48-1.184,1.48H25" transform="translate(-9.796 -15.51)"/><line class="b" y1="4.735" transform="translate(15.204 23.49)"/><path class="a" d="M25.857,33.551v1.184a.559.559,0,0,1-.592.592H1.592A.593.593,0,0,1,1,34.735V1.592A.593.593,0,0,1,1.592,1h14.8"/><line class="a" y2="7.694" transform="translate(25.857 10.469)"/><path class="b" d="M42,43.735V39h2.367" transform="translate(-16.735 -15.51)"/><line class="c" x2="1.776" transform="translate(25.265 25.857)"/><path class="b" d="M34.243,43.735H33V39h1.243a1.718,1.718,0,0,1,1.716,1.716v1.3A1.718,1.718,0,0,1,34.243,43.735Z" transform="translate(-13.061 -15.51)"/></g></svg>