<svg xmlns="http://www.w3.org/2000/svg" xmlns:xlink="http://www.w3.org/1999/xlink" width="33.3" height="33.3" viewBox="0 0 33.3 33.3"><defs><style>.a,.c,.d,.e{fill:none;}.b{clip-path:url(#a);}.c,.d{stroke:#999;}.c,.d,.e{stroke-linecap:round;stroke-linejoin:round;stroke-miterlimit:10;stroke-width:1.3px;}.d{opacity:0.1;}.e{stroke:#41d3bd;}</style><clipPath id="a"><rect class="a" width="33.3" height="33.3"/></clipPath></defs><g class="b"><rect class="c" width="2.207" height="2.207" transform="translate(7.271 13.891)"/><rect class="c" width="2.207" height="2.207" transform="translate(15.547 13.891)"/><rect class="c" width="2.207" height="2.207" transform="translate(23.822 13.891)"/><rect class="c" width="2.207" height="2.207" transform="translate(7.271 22.167)"/><rect class="c" width="2.207" height="2.207" transform="translate(15.547 22.167)"/><path class="d" d="M45,42" transform="translate(-20.074 -18.729)"/><path class="c" d="M33,34.586a1.107,1.107,0,0,1-1.1,1.1H2.1a1.107,1.107,0,0,1-1.1-1.1V8.1A1.107,1.107,0,0,1,2.1,7H31.9A1.107,1.107,0,0,1,33,8.1Z" transform="translate(-0.35 -3.04)"/><line class="c" y2="5.517" transform="translate(11.133 0.65)"/><line class="c" y2="5.517" transform="translate(22.167 0.65)"/><line class="e" x1="4.414" y2="4.414" transform="translate(22.719 21.064)"/><line class="e" x1="4.414" y1="4.414" transform="translate(22.719 21.064)"/></g></svg>