<svg xmlns="http://www.w3.org/2000/svg" width="96" height="95.695" viewBox="0 0 96 95.695"><defs><style>.a,.b{fill:none;stroke-linecap:round;stroke-linejoin:round;stroke-width:2px;}.a{stroke:#ccc;}.b{stroke:#666;}</style></defs><g transform="translate(-159 -296)"><line class="a" x1="10" y2="11" transform="translate(241 307.695)"/><line class="a" x1="10" y1="10" transform="translate(241 368.695)"/><line class="a" y1="10" x2="11" transform="translate(163 368.695)"/><line class="a" x2="11" y2="11" transform="translate(163 307.695)"/><line class="a" x1="6" transform="translate(248 343.5)"/><line class="a" x2="7" transform="translate(160 343.5)"/><line class="a" x1="5.432" transform="translate(206.5 385.264) rotate(90)"/><line class="a" x2="6.79" transform="translate(206.5 297) rotate(90)"/><path class="b" d="M1845.615,3272.2a1.451,1.451,0,0,1-1.436,1.456h-28.742A1.451,1.451,0,0,1,1814,3272.2v-40.747a1.45,1.45,0,0,1,1.436-1.455h28.742a1.45,1.45,0,0,1,1.436,1.455Z" transform="translate(-1623 -2908)"/><line class="b" x2="15" transform="translate(199 330.658)"/><line class="b" x2="12" transform="translate(196 341.658)"/><line class="b" x2="4" transform="translate(213 341.658)"/><line class="b" x2="12" transform="translate(196 348.658)"/><line class="b" x2="4" transform="translate(213 348.658)"/><line class="b" x2="12" transform="translate(196 356.658)"/><line class="b" x2="4" transform="translate(213 356.658)"/></g></svg>