<svg xmlns="http://www.w3.org/2000/svg" width="96" height="95.695" viewBox="0 0 96 95.695"><defs><style>.a,.b,.c{fill:none;stroke-linecap:round;stroke-linejoin:round;stroke-width:2px;}.a{stroke:#999;}.b{stroke:#ccc;}.c{stroke:#666;}</style></defs><g transform="translate(-159 -320)"><path class="a" d="M1856.219,3144.2a24.084,24.084,0,0,1-7.1,17.111L1832,3144.2V3120A24.208,24.208,0,0,1,1856.219,3144.2Z" transform="translate(-1625.323 -2774.337)"/><line class="b" x1="10" y2="11" transform="translate(241 331.695)"/><line class="b" x1="10" y1="10" transform="translate(241 392.695)"/><line class="b" y1="10" x2="11" transform="translate(163 392.695)"/><line class="b" x2="11" y2="11" transform="translate(163 331.695)"/><line class="b" x1="6" transform="translate(248 367.5)"/><line class="b" x2="7" transform="translate(160 367.5)"/><line class="b" x1="5.432" transform="translate(206.5 409.264) rotate(90)"/><line class="b" x2="6.79" transform="translate(206.5 321) rotate(90)"/><path class="c" d="M1825.677,3128h-1.057a18.923,18.923,0,0,0,0,37.841,18.415,18.415,0,0,0,13.166-5.542l1.015-1.038" transform="translate(-1619 -2776.282)"/><path class="c" d="M1856.219,3144.2a24.084,24.084,0,0,1-7.1,17.111L1832,3144.2V3120A24.208,24.208,0,0,1,1856.219,3144.2Z" transform="translate(-1625.323 -2774.337)"/><line class="c" x2="19.022" transform="translate(187.656 369.865)"/></g></svg>