<svg xmlns="http://www.w3.org/2000/svg" width="96" height="95.695" viewBox="0 0 96 95.695"><defs><style>.a,.b{fill:none;stroke-linecap:round;stroke-linejoin:round;stroke-width:2px;}.a{stroke:#666;}.b{stroke:#ccc;}</style></defs><g transform="translate(-159 -243.305)"><path class="a" d="M615,3933v8.133a3.857,3.857,0,0,1-3.822,3.867H588.822a3.855,3.855,0,0,1-3.822-3.867v-50.266a3.855,3.855,0,0,1,3.822-3.867h22.356a3.856,3.856,0,0,1,3.822,3.867V3899" transform="translate(-399 -3623)"/><line class="a" x2="8" transform="translate(197 270)"/><path class="a" d="M603,3938a3,3,0,1,1-3-3A3,3,0,0,1,603,3938Z" transform="translate(-399 -3623)"/><path class="a" d="M610,3924h-6v-19h29v19H615" transform="translate(-399 -3623)"/><path class="a" d="M615,3924l-5,6v-6" transform="translate(-399 -3623)"/><line class="b" x1="10" y2="11" transform="translate(241 255)"/><line class="b" x1="10" y1="10" transform="translate(241 316)"/><line class="b" y1="10" x2="11" transform="translate(163 316)"/><line class="b" x2="11" y2="11" transform="translate(163 255)"/><line class="b" x1="6" transform="translate(248 291.5)"/><line class="b" x2="7" transform="translate(160 291.5)"/><line class="b" x1="5.432" transform="translate(206.5 332.568) rotate(90)"/><line class="b" x2="6.79" transform="translate(206.5 244.305) rotate(90)"/></g></svg>