<svg xmlns="http://www.w3.org/2000/svg" xmlns:xlink="http://www.w3.org/1999/xlink" preserveAspectRatio="xMidYMid" width="23.71" height="20" viewBox="0 0 23.71 20">
  <defs>
    <style>
      .cls-1 {
        fill-rule: evenodd;
      }
    </style>
  </defs>
  <path d="M23.192,15.895 C23.050,15.966 22.899,16.000 22.750,16.000 C22.387,16.001 22.038,15.798 21.864,15.447 L21.036,13.772 C19.568,17.496 16.039,20.000 11.868,20.000 C7.336,20.000 3.285,17.043 2.018,12.809 C1.860,12.281 2.155,11.723 2.678,11.563 C3.201,11.402 3.753,11.702 3.911,12.230 C4.929,15.627 8.201,18.000 11.868,18.000 C15.308,18.000 18.101,15.970 19.233,12.895 L17.256,13.894 C16.767,14.141 16.174,13.941 15.929,13.447 C15.684,12.953 15.883,12.353 16.371,12.106 L20.328,10.105 C20.817,9.858 21.410,10.059 21.656,10.553 L23.634,14.553 C23.878,15.047 23.680,15.647 23.192,15.895 ZM11.868,11.000 C10.203,11.000 8.900,9.902 8.900,8.500 C8.900,7.384 9.731,6.472 10.907,6.141 C10.900,6.093 10.879,6.050 10.879,6.000 L10.879,5.000 C10.879,4.448 11.321,4.000 11.868,4.000 C12.414,4.000 12.857,4.448 12.857,5.000 L12.857,6.000 L13.846,6.000 C14.393,6.000 14.835,6.448 14.835,7.000 C14.835,7.552 14.393,8.000 13.846,8.000 L11.868,8.000 C11.254,8.000 10.879,8.324 10.879,8.500 C10.879,8.676 11.254,9.000 11.868,9.000 C13.532,9.000 14.835,10.098 14.835,11.500 C14.835,12.615 14.004,13.528 12.829,13.859 C12.836,13.907 12.857,13.950 12.857,14.000 L12.857,15.000 C12.857,15.552 12.414,16.000 11.868,16.000 C11.321,16.000 10.879,15.552 10.879,15.000 L10.879,14.000 L9.889,14.000 C9.342,14.000 8.900,13.552 8.900,13.000 C8.900,12.448 9.342,12.000 9.889,12.000 L11.868,12.000 C12.481,12.000 12.857,11.676 12.857,11.500 C12.857,11.324 12.481,11.000 11.868,11.000 ZM21.058,8.438 C20.533,8.598 19.982,8.298 19.824,7.770 C18.806,4.373 15.535,2.000 11.868,2.000 C8.425,2.000 5.631,4.031 4.500,7.106 L6.479,6.105 C6.968,5.859 7.562,6.059 7.807,6.553 C8.051,7.047 7.853,7.648 7.364,7.895 L3.407,9.894 C3.265,9.967 3.114,10.000 2.966,10.000 C2.602,10.000 2.254,9.798 2.080,9.447 L0.101,5.448 C-0.143,4.953 0.055,4.352 0.544,4.106 C1.034,3.858 1.626,4.059 1.871,4.553 L2.699,6.226 C4.165,2.504 7.694,-0.000 11.868,-0.000 C16.398,-0.000 20.449,2.957 21.717,7.190 C21.876,7.719 21.580,8.277 21.058,8.438 Z" class="cls-1"/>
</svg>
