<svg xmlns="http://www.w3.org/2000/svg" xmlns:xlink="http://www.w3.org/1999/xlink" preserveAspectRatio="xMidYMid" width="24" height="23" viewBox="0 0 24 23">
  <defs>
    <style>
      .cls-1 {
        fill-rule: evenodd;
      }
    </style>
  </defs>
  <path d="M22.000,23.000 L2.000,23.000 C0.897,23.000 -0.000,22.103 -0.000,21.000 L-0.000,6.000 C-0.000,4.897 0.897,4.000 2.000,4.000 L7.000,4.000 L7.000,3.000 C7.000,1.346 8.346,0.000 10.000,0.000 L14.000,0.000 C15.654,0.000 17.000,1.346 17.000,3.000 L17.000,4.000 L22.000,4.000 C23.102,4.000 24.000,4.897 24.000,6.000 L24.000,21.000 C24.000,22.103 23.102,23.000 22.000,23.000 ZM2.000,21.000 L21.997,21.000 L21.999,13.000 L15.000,13.000 C15.000,14.654 13.654,16.000 12.000,16.000 C11.208,16.000 10.457,15.687 9.885,15.120 C9.312,14.547 9.000,13.795 9.000,13.000 L2.000,13.000 L2.000,21.000 ZM11.000,13.000 C11.000,13.262 11.105,13.512 11.297,13.704 C11.485,13.891 11.743,14.000 12.000,14.000 C12.552,14.000 13.000,13.552 13.000,13.000 L13.000,11.000 C13.000,10.738 12.894,10.488 12.703,10.296 C12.515,10.110 12.257,10.000 12.000,10.000 C11.448,10.000 11.000,10.449 11.000,11.000 L11.000,13.000 ZM15.000,3.000 C15.000,2.449 14.552,2.000 14.000,2.000 L10.000,2.000 C9.448,2.000 9.000,2.449 9.000,3.000 L9.000,4.000 L15.000,4.000 L15.000,3.000 ZM2.000,6.000 L2.000,11.000 L9.000,11.000 C9.000,9.346 10.346,8.000 12.000,8.000 C12.792,8.000 13.543,8.313 14.115,8.880 C14.687,9.453 15.000,10.205 15.000,11.000 L21.999,11.000 L22.000,6.000 L2.000,6.000 Z" class="cls-1"/>
</svg>
