<svg xmlns="http://www.w3.org/2000/svg" xmlns:xlink="http://www.w3.org/1999/xlink" preserveAspectRatio="xMidYMid" width="23.88" height="24" viewBox="0 0 23.88 24">
  <defs>
    <style>
      .cls-1 {
        fill-rule: evenodd;
      }
    </style>
  </defs>
  <path d="M22.866,12.974 L9.942,12.974 C9.393,12.974 8.948,12.527 8.948,11.975 L8.948,3.988 C8.948,3.436 9.393,2.989 9.942,2.989 L22.866,2.989 C23.415,2.989 23.860,3.436 23.860,3.988 L23.860,11.975 C23.860,12.527 23.415,12.974 22.866,12.974 ZM21.970,5.000 L10.936,4.986 L10.936,10.977 L21.970,11.000 L21.970,5.000 ZM16.408,5.985 C17.270,5.985 17.895,6.828 17.895,7.989 C17.895,9.160 17.272,10.010 16.414,10.010 C15.544,10.010 14.913,9.160 14.913,7.989 C14.913,6.828 15.542,5.985 16.408,5.985 ZM19.883,1.991 L7.954,1.991 L7.954,8.980 C7.954,9.532 7.509,9.978 6.960,9.978 C6.411,9.978 5.966,9.532 5.966,8.980 L5.966,0.992 C5.966,0.441 6.411,-0.006 6.960,-0.006 L19.883,-0.006 C20.433,-0.006 20.877,0.441 20.877,0.992 C20.877,1.544 20.433,1.991 19.883,1.991 ZM10.626,14.050 C10.691,14.060 10.755,14.077 10.817,14.100 L16.499,16.215 C16.508,16.218 16.513,16.225 16.522,16.229 C16.530,16.232 16.539,16.231 16.547,16.234 C16.926,16.398 17.242,16.657 17.491,16.973 L20.354,15.272 C20.376,15.259 20.402,15.258 20.425,15.247 C20.448,15.236 20.464,15.215 20.488,15.205 C21.739,14.696 23.173,15.308 23.680,16.566 C23.926,17.176 23.920,17.845 23.664,18.450 C23.425,19.018 22.993,19.465 22.440,19.721 L16.690,23.745 C16.551,23.842 16.387,23.903 16.218,23.919 C16.154,23.925 15.388,23.997 14.396,23.997 C13.361,23.997 12.079,23.919 11.092,23.606 C10.109,23.295 8.926,22.617 7.882,22.018 C7.220,21.638 6.312,21.118 6.037,21.064 C5.710,21.069 3.798,21.531 2.256,21.964 C1.994,22.038 1.709,21.999 1.475,21.857 C1.240,21.714 1.074,21.480 1.017,21.210 L0.023,16.525 C-0.086,16.011 0.221,15.500 0.725,15.356 C7.148,13.534 10.486,14.028 10.626,14.050 ZM2.743,19.763 C3.883,19.462 5.478,19.072 6.098,19.072 C6.725,19.072 7.479,19.488 8.868,20.284 C9.825,20.833 10.910,21.455 11.690,21.702 C12.854,22.070 14.838,22.020 15.774,21.952 L21.385,18.026 C21.446,17.983 21.512,17.948 21.582,17.919 C21.736,17.857 21.806,17.737 21.834,17.671 C21.862,17.604 21.900,17.470 21.836,17.314 C21.745,17.088 21.496,16.975 21.264,17.051 L17.979,19.002 C17.946,19.161 17.896,19.317 17.831,19.469 C17.433,20.400 16.525,20.959 15.574,20.959 C15.251,20.959 14.924,20.895 14.610,20.760 L9.604,18.946 C9.088,18.759 8.821,18.186 9.007,17.668 C9.193,17.149 9.764,16.882 10.280,17.068 L15.340,18.903 C15.629,19.027 15.903,18.915 16.005,18.679 C16.071,18.526 16.036,18.392 16.010,18.325 C15.983,18.259 15.915,18.138 15.763,18.071 L10.234,16.013 C9.739,15.961 7.010,15.767 2.163,17.033 L2.743,19.763 Z" class="cls-1"/>
</svg>
