<svg xmlns="http://www.w3.org/2000/svg" xmlns:xlink="http://www.w3.org/1999/xlink" preserveAspectRatio="xMidYMid" width="24" height="6" viewBox="0 0 24 6">
  <defs>
    <style>
      .cls-1 {
        fill-rule: evenodd;
      }
    </style>
  </defs>
  <path d="M21.000,6.000 C19.346,6.000 18.000,4.654 18.000,3.000 C18.000,1.346 19.346,0.000 21.000,0.000 C22.654,0.000 24.000,1.346 24.000,3.000 C24.000,4.654 22.654,6.000 21.000,6.000 ZM21.000,2.000 C20.449,2.000 20.000,2.448 20.000,3.000 C20.000,3.552 20.449,4.000 21.000,4.000 C21.551,4.000 22.000,3.552 22.000,3.000 C22.000,2.448 21.551,2.000 21.000,2.000 ZM12.000,6.000 C10.346,6.000 9.000,4.654 9.000,3.000 C9.000,1.346 10.346,0.000 12.000,0.000 C13.654,0.000 15.000,1.346 15.000,3.000 C15.000,4.654 13.654,6.000 12.000,6.000 ZM12.000,2.000 C11.449,2.000 11.000,2.448 11.000,3.000 C11.000,3.552 11.449,4.000 12.000,4.000 C12.551,4.000 13.000,3.552 13.000,3.000 C13.000,2.448 12.551,2.000 12.000,2.000 ZM3.000,6.000 C1.346,6.000 -0.000,4.654 -0.000,3.000 C-0.000,1.346 1.346,0.000 3.000,0.000 C4.654,0.000 6.000,1.346 6.000,3.000 C6.000,4.654 4.654,6.000 3.000,6.000 ZM3.000,2.000 C2.449,2.000 2.000,2.448 2.000,3.000 C2.000,3.552 2.449,4.000 3.000,4.000 C3.551,4.000 4.000,3.552 4.000,3.000 C4.000,2.448 3.551,2.000 3.000,2.000 Z" class="cls-1"/>
</svg>
