<svg xmlns="http://www.w3.org/2000/svg" width="30.748" height="36.138" viewBox="0 0 30.748 36.138"><defs><style>.a,.b{fill:none;stroke-linecap:round;stroke-linejoin:round;stroke-miterlimit:10;stroke-width:1.4px;}.a{stroke:#999;}.b{stroke:#41d3bd;}</style></defs><g transform="translate(0.7 0.7)"><rect class="a" width="17.369" height="9.583" transform="translate(11.979 20.364)"/><path class="a" d="M26.155,33.941v1.2a.566.566,0,0,1-.6.6H1.6a.6.6,0,0,1-.6-.6V1.6A.6.6,0,0,1,1.6,1H16.572" transform="translate(-1 -1)"/><line class="a" y2="7.786" transform="translate(25.155 9.583)"/><path class="a" d="M36.583,10.583H27V1Z" transform="translate(-11.428 -1)"/><path class="b" d="M27.4,39v3.594a1.2,1.2,0,0,1-1.2,1.2h0a1.2,1.2,0,0,1-1.2-1.2" transform="translate(-10.626 -16.241)"/><path class="b" d="M33,39h1.2c.659,0,1.2.6,1.2,1.5s-.539,1.5-1.2,1.5H33" transform="translate(-13.834 -16.241)"/><line class="b" y1="4.791" transform="translate(19.166 22.759)"/><path class="b" d="M43.815,39.419A1.838,1.838,0,0,0,42.5,39h0A1.483,1.483,0,0,0,41,40.5v1.8a1.483,1.483,0,0,0,1.5,1.5h0a1.483,1.483,0,0,0,1.5-1.5v-.9H42.8" transform="translate(-17.043 -16.241)"/></g></svg>