<svg xmlns="http://www.w3.org/2000/svg" width="15.706" height="21.308" viewBox="0 0 15.706 21.308"><defs><style>.a{fill:none;stroke:#fff;stroke-linecap:round;stroke-linejoin:round;stroke-miterlimit:10;}</style></defs><g transform="translate(0.5 0.5)"><g transform="translate(0 0)"><g transform="translate(0 0)"><path class="a" d="M15.706,20.643a.665.665,0,0,1-.665.665H1.665A.689.689,0,0,1,1,20.643V1.665A.689.689,0,0,1,1.665,1H15.041a.689.689,0,0,1,.665.665V20.643Z" transform="translate(-1 -1)"/></g><line class="a" x2="7.003" transform="translate(3.852 3.852)"/><line class="a" x2="5.602" transform="translate(2.451 9.104)"/><line class="a" x2="2.101" transform="translate(10.154 9.104)"/><line class="a" x2="5.602" transform="translate(2.451 12.605)"/><line class="a" x2="2.101" transform="translate(10.154 12.605)"/><line class="a" x2="5.602" transform="translate(2.451 16.106)"/><line class="a" x2="2.101" transform="translate(10.154 16.106)"/></g></g></svg>