<svg xmlns="http://www.w3.org/2000/svg" width="36.154" height="31.36" viewBox="0 0 36.154 31.36"><defs><style>.a{fill:none;stroke:#999;stroke-linecap:round;stroke-linejoin:round;stroke-miterlimit:10;stroke-width:1.4px;}.b{fill:#999;}</style></defs><g transform="translate(0.7 0.7)"><path class="a" d="M5,21.373V2.138A1.138,1.138,0,0,1,6.138,1H33.822A1.138,1.138,0,0,1,34.96,2.138V5.794" transform="translate(-2.603 -1)"/><path class="a" d="M50.984,34.055a2.545,2.545,0,0,1-2.577,2.517H41.577A2.545,2.545,0,0,1,39,34.055V17.517A2.545,2.545,0,0,1,41.577,15h6.831a2.545,2.545,0,0,1,2.577,2.517V34.055Z" transform="translate(-16.23 -6.611)"/><line class="a" x2="2.397" transform="translate(27.563 10.786)"/><line class="a" x2="11.984" transform="translate(0 20.972)"/><path class="a" d="M18.976,40.794H2.138A1.191,1.191,0,0,1,1,39.6V36" transform="translate(-1 -15.028)"/><path class="a" d="M26.992,37.2H21V36" transform="translate(-9.016 -15.028)"/><circle class="b" cx="1.198" cy="1.198" r="1.198" transform="translate(27.563 25.766)"/></g></svg>