<svg xmlns="http://www.w3.org/2000/svg" xmlns:xlink="http://www.w3.org/1999/xlink" preserveAspectRatio="xMidYMid" width="24" height="22" viewBox="0 0 24 22">
  <defs>
    <style>
      .cls-1 {
        fill: #000;
        fill-rule: evenodd;
      }
    </style>
  </defs>
  <path d="M20.501,18.015 C20.752,19.500 21.557,20.145 21.595,20.174 C21.916,20.420 22.065,20.841 21.959,21.232 C21.854,21.622 21.529,21.916 21.127,21.967 C21.093,21.972 20.874,21.998 20.533,21.998 C19.505,21.998 17.369,21.743 15.757,19.977 L14.498,19.977 C12.688,19.977 10.976,19.594 9.547,18.870 C9.055,18.621 8.858,18.019 9.108,17.527 C9.357,17.036 9.960,16.839 10.453,17.088 C11.602,17.671 13.002,17.979 14.500,17.979 L16.199,17.979 C16.222,17.979 16.242,17.991 16.264,17.993 C16.333,17.997 16.397,18.014 16.463,18.033 C16.524,18.050 16.583,18.064 16.639,18.092 C16.694,18.119 16.740,18.157 16.790,18.194 C16.846,18.236 16.899,18.277 16.945,18.330 C16.960,18.346 16.980,18.354 16.994,18.373 C17.559,19.111 18.268,19.521 18.924,19.744 C18.690,19.186 18.513,18.500 18.452,17.691 C18.450,17.678 18.448,17.667 18.447,17.654 C18.445,17.632 18.439,17.615 18.437,17.592 C18.435,17.544 18.453,17.502 18.456,17.456 C18.462,17.384 18.465,17.314 18.486,17.246 C18.504,17.184 18.535,17.132 18.565,17.076 C18.594,17.018 18.621,16.962 18.662,16.911 C18.706,16.856 18.761,16.814 18.816,16.770 C18.853,16.740 18.877,16.700 18.919,16.675 C20.069,15.981 22.000,14.450 22.000,11.985 C22.000,10.778 21.339,9.442 20.429,8.809 C19.976,8.493 19.864,7.871 20.179,7.418 C20.494,6.965 21.117,6.853 21.571,7.169 C23.024,8.179 24.000,10.115 24.000,11.985 C24.000,14.313 22.725,16.475 20.501,18.015 ZM9.500,15.981 L8.243,15.981 C6.630,17.746 4.495,18.002 3.467,18.002 C3.126,18.002 2.907,17.976 2.873,17.971 C2.465,17.919 2.131,17.623 2.030,17.225 C1.930,16.827 2.083,16.408 2.417,16.169 C2.444,16.148 3.248,15.504 3.497,14.019 C1.274,12.479 0.000,10.317 0.000,7.989 C0.000,3.582 4.262,-0.004 9.500,-0.004 C14.738,-0.004 19.000,3.582 19.000,7.989 C19.000,12.396 14.738,15.981 9.500,15.981 ZM9.500,1.994 C5.364,1.994 2.000,4.683 2.000,7.989 C2.000,10.454 3.929,11.985 5.079,12.679 C5.120,12.704 5.144,12.743 5.180,12.772 C5.236,12.817 5.291,12.859 5.336,12.915 C5.377,12.965 5.403,13.021 5.433,13.078 C5.462,13.135 5.494,13.187 5.512,13.249 C5.533,13.318 5.536,13.387 5.542,13.459 C5.545,13.505 5.563,13.547 5.560,13.594 C5.559,13.617 5.553,13.634 5.551,13.657 C5.550,13.670 5.548,13.682 5.546,13.696 C5.486,14.504 5.308,15.191 5.075,15.748 C5.731,15.525 6.440,15.116 7.006,14.376 C7.020,14.358 7.040,14.350 7.055,14.334 C7.101,14.280 7.155,14.239 7.211,14.197 C7.261,14.160 7.307,14.122 7.362,14.096 C7.417,14.068 7.476,14.054 7.537,14.037 C7.604,14.018 7.668,14.001 7.737,13.996 C7.759,13.995 7.778,13.983 7.801,13.983 L9.502,13.983 C13.636,13.983 17.000,11.294 17.000,7.989 C17.000,4.683 13.636,1.994 9.500,1.994 ZM12.872,8.000 L6.872,8.000 C6.320,8.000 5.872,7.552 5.872,7.001 C5.872,6.449 6.320,6.002 6.872,6.002 L12.872,6.002 C13.424,6.002 13.872,6.449 13.872,7.001 C13.872,7.552 13.424,8.000 12.872,8.000 ZM6.872,8.999 L10.872,8.999 C11.424,8.999 11.872,9.447 11.872,9.998 C11.872,10.550 11.424,10.997 10.872,10.997 L6.872,10.997 C6.320,10.997 5.872,10.550 5.872,9.998 C5.872,9.447 6.320,8.999 6.872,8.999 Z" class="cls-1"/>
</svg>
