<svg xmlns="http://www.w3.org/2000/svg" xmlns:xlink="http://www.w3.org/1999/xlink" preserveAspectRatio="xMidYMid" width="18" height="24" viewBox="0 0 18 24">
  <defs>
    <style>
      .cls-1 {
        fill-rule: evenodd;
      }
    </style>
  </defs>
  <path d="M16.272,24.000 L1.727,24.000 C0.775,24.000 -0.000,23.222 -0.000,22.266 L-0.000,1.733 C-0.000,0.778 0.775,0.000 1.727,0.000 L16.272,0.000 C17.225,0.000 18.000,0.778 18.000,1.733 L18.000,22.266 C18.000,23.222 17.225,24.000 16.272,24.000 ZM16.000,2.000 L2.000,2.000 L2.000,22.000 L16.000,22.000 L16.000,2.000 ZM4.000,3.000 L14.000,3.000 C14.553,3.000 15.000,3.448 15.000,4.000 L15.000,7.000 C15.000,7.552 14.553,8.000 14.000,8.000 L4.000,8.000 C3.447,8.000 3.000,7.552 3.000,7.000 L3.000,4.000 C3.000,3.448 3.447,3.000 4.000,3.000 ZM5.000,6.000 L13.000,6.000 L13.000,5.000 L5.000,5.000 L5.000,6.000 ZM6.000,12.000 L4.000,12.000 L4.000,10.000 L6.000,10.000 L6.000,12.000 ZM6.000,16.000 L4.000,16.000 L4.000,14.000 L6.000,14.000 L6.000,16.000 ZM6.000,20.000 L4.000,20.000 L4.000,18.000 L6.000,18.000 L6.000,20.000 ZM10.000,12.000 L8.000,12.000 L8.000,10.000 L10.000,10.000 L10.000,12.000 ZM10.000,16.000 L8.000,16.000 L8.000,14.000 L10.000,14.000 L10.000,16.000 ZM10.000,20.000 L8.000,20.000 L8.000,18.000 L10.000,18.000 L10.000,20.000 ZM14.000,12.000 L12.000,12.000 L12.000,10.000 L14.000,10.000 L14.000,12.000 ZM14.000,16.000 L12.000,16.000 L12.000,14.000 L14.000,14.000 L14.000,16.000 ZM14.000,20.000 L12.000,20.000 L12.000,18.000 L14.000,18.000 L14.000,20.000 Z" class="cls-1"/>
</svg>
