<svg xmlns="http://www.w3.org/2000/svg" width="20.564" height="16.701" viewBox="0 0 20.564 16.701"><path d="M18.45,52.244c.013.183.013.365.013.548A11.909,11.909,0,0,1,6.472,64.783,11.91,11.91,0,0,1,0,62.892a8.719,8.719,0,0,0,1.018.052,8.44,8.44,0,0,0,5.232-1.8A4.222,4.222,0,0,1,2.309,58.22a5.315,5.315,0,0,0,.8.065,4.457,4.457,0,0,0,1.109-.144A4.215,4.215,0,0,1,.835,54.006v-.052a4.245,4.245,0,0,0,1.9.535,4.221,4.221,0,0,1-1.3-5.637,11.98,11.98,0,0,0,8.69,4.41,4.758,4.758,0,0,1-.1-.966,4.219,4.219,0,0,1,7.294-2.884A8.3,8.3,0,0,0,19.99,48.4a4.2,4.2,0,0,1-1.853,2.323,8.449,8.449,0,0,0,2.427-.652A9.059,9.059,0,0,1,18.45,52.244Z" transform="translate(0 -48.082)"/></svg>