<svg xmlns="http://www.w3.org/2000/svg" xmlns:xlink="http://www.w3.org/1999/xlink" preserveAspectRatio="xMidYMid" width="29.813" height="17.906" viewBox="0 0 29.813 17.906">
  <defs>
    <style>
      .cls-1 {
        fill-rule: evenodd;
      }
    </style>
  </defs>
  <path d="M29.558,1.644 L15.718,17.550 C15.538,17.758 15.280,17.881 15.006,17.891 C14.994,17.892 14.981,17.892 14.969,17.892 C14.708,17.892 14.456,17.788 14.270,17.604 L6.258,9.650 C5.868,9.263 5.865,8.634 6.252,8.244 C6.637,7.854 7.267,7.852 7.656,8.239 L14.916,15.445 L28.061,0.338 C28.419,-0.076 29.048,-0.120 29.462,0.241 C29.876,0.602 29.919,1.230 29.558,1.644 ZM15.258,11.230 C15.062,11.456 14.786,11.571 14.508,11.571 C14.277,11.571 14.045,11.491 13.857,11.327 C13.443,10.966 13.400,10.338 13.760,9.924 L22.101,0.338 C22.460,-0.076 23.088,-0.120 23.502,0.241 C23.916,0.602 23.959,1.230 23.599,1.644 L15.258,11.230 ZM9.715,17.597 C9.521,17.794 9.265,17.892 9.009,17.892 C8.757,17.892 8.504,17.796 8.310,17.604 L0.298,9.650 C-0.092,9.263 -0.095,8.634 0.292,8.244 C0.677,7.854 1.307,7.852 1.696,8.239 L9.709,16.192 C10.098,16.579 10.101,17.208 9.715,17.597 Z" class="cls-1"/>
</svg>
