<svg xmlns="http://www.w3.org/2000/svg" width="23.059" height="15.427" viewBox="0 0 23.059 15.427"><defs><style>.a{fill:none;stroke:#fff;stroke-linecap:round;stroke-linejoin:round;stroke-miterlimit:10;}</style></defs><g transform="translate(0.5 0.5)"><path class="a" d="M15.427,8.214a7.214,7.214,0,1,0-7.214,7.214A7.211,7.211,0,0,0,15.427,8.214Z" transform="translate(-1 -1)"/><path class="a" d="M34.938,15.162a7.946,7.946,0,0,0,1.936.266A7.214,7.214,0,1,0,36.836,1a6.453,6.453,0,0,0-1.936.266" transform="translate(-22.029 -1)"/><path class="a" d="M24.938,15.162a7.946,7.946,0,0,0,1.936.266A7.214,7.214,0,1,0,26.836,1a6.453,6.453,0,0,0-1.936.266" transform="translate(-15.826 -1)"/><g transform="translate(5.695 3.037)"><path class="a" d="M17.519,15.037a1.519,1.519,0,0,1,0-3.037h1.519" transform="translate(-16 -10.861)"/><path class="a" d="M17.519,20a1.519,1.519,0,1,1,0,3.037H16" transform="translate(-16 -15.824)"/><line class="a" y2="1.139" transform="translate(1.519)"/><line class="a" y2="1.139" transform="translate(1.519 7.214)"/></g></g></svg>