<svg xmlns="http://www.w3.org/2000/svg" width="48.966" height="66.64" viewBox="0 0 48.966 66.64"><defs><style>.a,.b{fill:none;stroke-linecap:round;stroke-linejoin:round;stroke-width:2px;}.a{stroke:#40d2bc;}.b{stroke:#999;}</style></defs><g transform="translate(-20.164 -40.61)"><g transform="translate(3.834 85)"><g transform="translate(32.331)"><line class="a" y2="21.25" transform="translate(8.5)"/><path class="a" d="M496.761,10742.261l8.5,8.5,8.5-8.5" transform="translate(-496.761 -10729.511)"/></g></g><g transform="translate(21.165 41.611)"><path class="b" d="M520.261,10772.663a15.376,15.376,0,1,0-15.377,15.376A15.376,15.376,0,0,0,520.261,10772.663Z" transform="translate(-489.508 -10757.287)"/><path class="b" d="M507.368,10787.488a15.375,15.375,0,1,0,0-29.651" transform="translate(-479.874 -10757.287)"/><path class="b" d="M502.111,10787.488a15.375,15.375,0,1,0,0-29.651" transform="translate(-482.711 -10757.287)"/><g transform="translate(12.14 6.474)"><path class="b" d="M500.629,10769.545a3.237,3.237,0,0,1,0-6.475h3.238" transform="translate(-497.393 -10760.644)"/><path class="b" d="M500.629,10767.274a3.238,3.238,0,0,1,0,6.477h-3.236" transform="translate(-497.393 -10758.372)"/><line class="b" y2="2.426" transform="translate(3.237)"/><line class="b" y2="2.428" transform="translate(3.237 15.376)"/></g></g></g></svg>