<svg xmlns="http://www.w3.org/2000/svg" xmlns:xlink="http://www.w3.org/1999/xlink" preserveAspectRatio="xMidYMid" width="24" height="24" viewBox="0 0 24 24">
  <defs>
    <style>
      .cls-1 {
        fill-rule: evenodd;
      }
    </style>
  </defs>
  <path d="M20.191,22.191 C19.996,22.387 19.740,22.485 19.484,22.485 C19.229,22.485 18.973,22.387 18.777,22.191 L17.730,21.144 C15.772,22.982 13.234,24.000 10.534,24.000 C4.726,24.000 0.000,19.275 0.000,13.467 C0.000,13.340 0.014,13.217 0.018,13.092 C0.015,13.060 0.000,13.033 0.000,13.000 C0.000,12.947 0.022,12.901 0.030,12.850 C0.342,7.508 4.646,3.231 10.000,2.961 L10.000,1.000 C10.000,0.448 10.447,0.000 11.000,0.000 C18.168,0.000 24.000,5.832 24.000,13.000 C24.000,16.472 22.648,19.737 20.191,22.191 ZM10.534,22.000 C12.700,22.000 14.735,21.191 16.316,19.730 L10.577,13.991 C10.562,13.992 10.550,14.000 10.534,14.000 L2.027,14.000 C2.305,18.457 6.008,22.000 10.534,22.000 ZM2.134,12.000 L10.000,12.000 L10.000,4.961 C6.037,5.208 2.803,8.166 2.134,12.000 ZM12.000,2.045 L12.000,12.586 L19.453,20.039 C21.103,18.067 22.000,15.602 22.000,13.000 C22.000,7.272 17.599,2.552 12.000,2.045 Z" class="cls-1"/>
</svg>
