<svg xmlns="http://www.w3.org/2000/svg" viewBox="0 0 80 80"><defs><style>.a{fill:#888;}.b{fill:#cc2130;}</style></defs><path class="a" d="M40,0A39.816,39.816,0,0,0,27.7,1.939c-.042.011-.084.014-.125.028-.205.067-.406.147-.611.218-.157.054-.312.11-.468.167q-1.06.379-2.1.819l-.066.027a39.935,39.935,0,0,0-4.391,2.186,1.487,1.487,0,0,0-.16.116l-.074.042a.039.039,0,0,0,.008.006,1.592,1.592,0,0,0,1.766,2.632c0,.011.006.021.008.03a36.7,36.7,0,0,1,6.448-2.975l.026-.009A36.854,36.854,0,1,1,6.435,24.94l-.037,0A1.6,1.6,0,0,0,3.43,23.771,39.815,39.815,0,0,0,.857,31.73c-.012.057-.013.114-.019.171A39.995,39.995,0,1,0,40,0Z"/><path class="a" d="M15.151,28.508a1.6,1.6,0,0,0,2.235-.356c.033-.046.07-.089.1-.135l.011.016a37.174,37.174,0,0,1,4.8-5.36l-.015-.011c.084-.077.162-.159.247-.236a1.6,1.6,0,1,0-2.145-2.374A40.3,40.3,0,0,0,14.8,26.273,1.6,1.6,0,0,0,15.151,28.508Z" transform="translate(-7.19 -9.745)"/><g transform="translate(21.212 23.883)"><path class="a" d="M50.583,54.218c0,3.766-1.9,6.818-4.242,6.818S42.1,57.984,42.1,54.218,44,47.4,46.341,47.4,50.583,50.452,50.583,54.218Z" transform="translate(-42.099 -47.4)"/><path class="a" d="M108.318,54.218c0,3.766-1.9,6.818-4.243,6.818s-4.243-3.052-4.243-6.818,1.9-6.818,4.243-6.818S108.318,50.452,108.318,54.218Z" transform="translate(-70.743 -47.4)"/></g><path class="a" d="M59.372,91.469a44.858,44.858,0,0,1-20.251-4.536c-.045.553-.075,1.111-.075,1.675a20.326,20.326,0,1,0,40.652,0c0-.565-.03-1.123-.074-1.675A44.858,44.858,0,0,1,59.372,91.469Z" transform="translate(-19.372 -43.13)"/><path class="b" d="M79.575,115.595a14.541,14.541,0,0,0-24.658,0,20.311,20.311,0,0,0,24.658,0Z" transform="translate(-27.246 -53.961)"/></svg>