<svg xmlns="http://www.w3.org/2000/svg" xmlns:xlink="http://www.w3.org/1999/xlink" preserveAspectRatio="xMidYMid" width="60" height="40" viewBox="0 0 60 40">
  <defs>
    <style>
      .cls-1 {
        fill: #999999;
        fill-rule: evenodd;
      }
    </style>
  </defs>
  <path d="M30.000,39.999 C9.352,39.999 -0.000,24.657 -0.000,19.999 C-0.000,15.341 9.352,-0.001 30.000,-0.001 C50.648,-0.001 60.000,15.341 60.000,19.999 C60.000,24.657 50.648,39.999 30.000,39.999 ZM30.000,1.999 C10.683,1.999 2.000,16.307 2.000,19.999 C2.000,23.691 10.683,37.999 30.000,37.999 C49.317,37.999 58.000,23.691 58.000,19.999 C58.000,16.307 49.317,1.999 30.000,1.999 ZM30.000,32.000 C23.383,32.000 18.000,26.615 18.000,19.999 C18.000,13.383 23.383,8.000 30.000,8.000 C36.617,8.000 42.000,13.383 42.000,19.999 C42.000,26.615 36.617,32.000 30.000,32.000 ZM30.000,9.999 C24.486,9.999 20.000,14.485 20.000,19.999 C20.000,25.514 24.486,29.999 30.000,29.999 C35.514,29.999 40.000,25.514 40.000,19.999 C40.000,14.485 35.514,9.999 30.000,9.999 Z" class="cls-1"/>
</svg>
