<svg xmlns="http://www.w3.org/2000/svg" xmlns:xlink="http://www.w3.org/1999/xlink" preserveAspectRatio="xMidYMid" width="24" height="24" viewBox="0 0 24 24">
  <defs>
    <style>
    </style>
  </defs>
  <path d="M12.000,24.000 C5.383,24.000 0.000,18.616 0.000,12.000 C0.000,5.383 5.383,-0.000 12.000,-0.000 C18.617,-0.000 24.000,5.383 24.000,12.000 C24.000,18.616 18.617,24.000 12.000,24.000 ZM12.000,22.000 C14.298,22.000 16.412,21.213 18.103,19.904 L13.483,17.122 C13.364,17.050 13.266,16.958 13.189,16.852 C13.189,16.852 13.189,16.852 13.189,16.852 C13.185,16.847 13.185,16.840 13.181,16.834 C13.110,16.732 13.057,16.619 13.028,16.499 C13.013,16.436 13.021,16.373 13.018,16.310 C13.015,16.245 13.002,16.181 13.012,16.115 C13.031,15.991 13.074,15.872 13.138,15.762 C13.140,15.758 13.140,15.754 13.143,15.750 C13.143,15.750 13.143,15.750 13.143,15.749 C13.180,15.687 13.241,15.639 13.293,15.586 C13.334,15.543 13.365,15.490 13.412,15.456 C13.412,15.456 13.412,15.456 13.413,15.455 C14.966,14.331 15.000,11.997 15.000,11.973 L14.997,8.785 C14.755,7.857 13.332,7.000 12.000,7.000 C10.668,7.000 9.245,7.858 9.003,8.787 L9.000,11.980 C9.000,11.999 9.034,14.331 10.587,15.455 C10.588,15.456 10.588,15.456 10.588,15.456 C10.619,15.479 10.639,15.516 10.667,15.542 C10.737,15.607 10.810,15.671 10.857,15.749 C10.857,15.750 10.857,15.750 10.857,15.750 C10.860,15.754 10.860,15.758 10.862,15.762 C10.926,15.872 10.969,15.991 10.988,16.115 C10.998,16.180 10.985,16.244 10.982,16.309 C10.979,16.373 10.987,16.436 10.972,16.499 C10.944,16.615 10.892,16.723 10.824,16.823 C10.818,16.832 10.817,16.843 10.811,16.852 C10.811,16.852 10.811,16.852 10.810,16.853 C10.783,16.891 10.737,16.917 10.703,16.951 C10.644,17.012 10.588,17.079 10.517,17.122 C10.517,17.122 10.517,17.122 10.517,17.122 L5.898,19.905 C7.589,21.213 9.702,22.000 12.000,22.000 ZM12.000,2.000 C6.486,2.000 2.000,6.486 2.000,12.000 C2.000,14.470 2.905,16.730 4.395,18.476 L8.399,16.064 C7.038,14.316 7.000,12.091 7.000,11.977 L7.003,8.677 C7.003,8.615 7.009,8.553 7.021,8.492 C7.427,6.335 9.922,5.000 12.000,5.000 C14.078,5.000 16.573,6.335 16.979,8.490 C16.991,8.551 16.997,8.613 16.997,8.675 L17.000,11.976 C17.000,12.089 16.962,14.315 15.601,16.063 L19.607,18.475 C21.096,16.729 22.000,14.470 22.000,12.000 C22.000,6.486 17.514,2.000 12.000,2.000 Z" class="cls-1"/>
</svg>
