<svg xmlns="http://www.w3.org/2000/svg" xmlns:xlink="http://www.w3.org/1999/xlink" preserveAspectRatio="xMidYMid" width="83.752" height="96" viewBox="0 0 41.876 48">
  <defs>
    <style>
      .cls-1 {
        fill: #ffffff;
        fill-rule: evenodd;
      }
    </style>
  </defs>
  <path d="M41.579,41.108 C41.231,41.674 40.592,41.999 39.826,41.999 L27.798,41.999 C27.309,45.383 24.429,47.999 20.924,47.999 C17.421,47.999 14.541,45.383 14.053,41.999 L2.025,41.999 C1.260,41.999 0.622,41.675 0.273,41.110 C-0.074,40.544 -0.078,39.826 0.264,39.137 L5.986,26.778 L5.986,14.997 C5.986,6.727 12.687,-0.001 20.924,-0.001 C29.164,-0.001 35.867,6.727 35.867,14.997 L35.867,26.779 L41.600,39.164 C41.930,39.825 41.927,40.543 41.579,41.108 ZM20.924,45.999 C23.331,45.999 25.343,44.279 25.806,41.999 L16.045,41.999 C16.508,44.279 18.519,45.999 20.924,45.999 ZM33.968,27.420 C33.965,27.415 33.966,27.409 33.964,27.404 C33.937,27.343 33.931,27.274 33.917,27.207 C33.903,27.143 33.879,27.080 33.878,27.016 C33.878,27.010 33.875,27.005 33.875,26.999 L33.875,14.997 C33.875,7.830 28.065,1.999 20.924,1.999 C13.786,1.999 7.978,7.830 7.978,14.997 L7.978,26.999 C7.978,27.005 7.975,27.009 7.975,27.015 C7.974,27.081 7.950,27.145 7.935,27.211 C7.921,27.276 7.916,27.344 7.889,27.404 C7.887,27.409 7.888,27.415 7.885,27.420 L2.062,39.999 L39.791,39.999 L33.968,27.420 Z" class="cls-1"/>
</svg>
