<svg xmlns="http://www.w3.org/2000/svg" xmlns:xlink="http://www.w3.org/1999/xlink" preserveAspectRatio="xMidYMid" width="60" height="53.91" viewBox="0 0 60 53.91">
  <defs>
    <style>
      .cls-1 {
        fill: #999999;
        fill-rule: evenodd;
      }
    </style>
  </defs>
  <path d="M4.707,53.614 C4.512,53.810 4.256,53.907 4.000,53.907 C3.744,53.907 3.488,53.810 3.293,53.614 C2.902,53.225 2.902,52.593 3.293,52.202 L12.388,43.123 C3.831,37.855 0.000,29.422 0.000,26.954 C0.000,22.304 9.352,6.989 30.000,6.989 C35.323,6.989 42.310,8.058 45.469,10.100 L55.293,0.293 C55.684,-0.097 56.316,-0.097 56.707,0.293 C57.098,0.683 57.098,1.315 56.707,1.705 L4.707,53.614 ZM36.327,19.226 C34.546,17.767 32.333,16.971 30.000,16.971 C24.486,16.971 20.000,21.449 20.000,26.954 C20.000,29.270 20.806,31.486 22.264,33.264 L36.327,19.226 ZM30.000,8.984 C10.683,8.984 2.000,23.268 2.000,26.954 C2.000,28.809 5.708,36.848 13.845,41.668 L20.845,34.681 C19.014,32.520 18.000,29.800 18.000,26.954 C18.000,20.348 23.383,14.975 30.000,14.975 C32.867,14.975 35.579,15.982 37.742,17.813 L44.012,11.554 C41.033,9.884 34.706,8.984 30.000,8.984 ZM40.778,24.529 C41.326,24.456 41.827,24.842 41.899,25.390 C41.966,25.903 42.000,26.428 42.000,26.954 C42.000,33.560 36.617,38.933 30.000,38.933 C29.457,38.933 28.906,38.895 28.363,38.822 C27.816,38.749 27.432,38.245 27.506,37.699 C27.580,37.152 28.090,36.773 28.631,36.844 C29.085,36.905 29.546,36.937 30.000,36.937 C35.514,36.937 40.000,32.458 40.000,26.954 C40.000,26.515 39.972,26.076 39.915,25.648 C39.844,25.101 40.230,24.601 40.778,24.529 ZM21.194,43.943 C23.479,44.395 27.157,44.923 30.000,44.923 C49.317,44.923 58.000,30.639 58.000,26.954 C58.000,25.219 55.309,19.694 50.375,15.755 C49.944,15.410 49.874,14.782 50.219,14.351 C50.563,13.920 51.193,13.851 51.624,14.195 C56.814,18.339 60.000,24.419 60.000,26.954 C60.000,31.603 50.648,46.919 30.000,46.919 C27.012,46.919 23.180,46.371 20.806,45.902 C20.264,45.794 19.912,45.269 20.019,44.728 C20.126,44.188 20.647,43.836 21.194,43.943 Z" class="cls-1"/>
</svg>
