<svg xmlns="http://www.w3.org/2000/svg" width="18.003" height="17.999" viewBox="0 0 18.003 17.999"><path d="M8.929,36.21a4.615,4.615,0,1,0,4.615,4.615A4.607,4.607,0,0,0,8.929,36.21Zm0,7.615a3,3,0,1,1,3-3,3.006,3.006,0,0,1-3,3Zm5.88-7.8a1.076,1.076,0,1,1-1.076-1.076A1.074,1.074,0,0,1,14.809,36.021Zm3.056,1.092a5.327,5.327,0,0,0-1.454-3.771,5.362,5.362,0,0,0-3.771-1.454c-1.486-.084-5.94-.084-7.426,0a5.354,5.354,0,0,0-3.771,1.45A5.344,5.344,0,0,0-.012,37.11C-.1,38.6-.1,43.05-.012,44.536a5.327,5.327,0,0,0,1.454,3.771,5.369,5.369,0,0,0,3.771,1.454c1.486.084,5.94.084,7.426,0a5.327,5.327,0,0,0,3.771-1.454,5.362,5.362,0,0,0,1.454-3.771C17.949,43.05,17.949,38.6,17.865,37.114Zm-1.92,9.017a3.037,3.037,0,0,1-1.711,1.711c-1.185.47-4,.361-5.306.361s-4.125.1-5.306-.361A3.037,3.037,0,0,1,1.912,46.13c-.47-1.185-.361-4-.361-5.306s-.1-4.125.361-5.306a3.037,3.037,0,0,1,1.711-1.711c1.185-.47,4-.361,5.306-.361s4.125-.1,5.306.361a3.037,3.037,0,0,1,1.711,1.711c.47,1.185.361,4,.361,5.306S16.415,44.949,15.945,46.13Z" transform="translate(0.075 -31.825)"/></svg>