<svg xmlns="http://www.w3.org/2000/svg" width="27.249" height="18.306" viewBox="0 0 27.249 18.306"><defs><style>.a{fill:rgba(0,0,0,0);}.a,.b{stroke:#fff;stroke-linecap:round;stroke-linejoin:round;stroke-miterlimit:10;stroke-width:1.4px;}.b{fill:none;}</style></defs><g transform="translate(0.7 0.7)"><path class="a" d="M17.906,9.453a8.453,8.453,0,1,0-8.453,8.453A8.449,8.449,0,0,0,17.906,9.453Z" transform="translate(-1 -1)"/><path class="a" d="M34.944,17.595a9.311,9.311,0,0,0,2.269.311A8.453,8.453,0,1,0,37.169,1a7.562,7.562,0,0,0-2.269.311" transform="translate(-19.818 -1)"/><path class="a" d="M24.944,17.595a9.311,9.311,0,0,0,2.269.311A8.453,8.453,0,1,0,27.169,1a7.562,7.562,0,0,0-2.269.311" transform="translate(-14.267 -1)"/><path class="a" d="M17.78,15.559a1.78,1.78,0,0,1,0-3.559h1.78" transform="translate(-9.327 -7.106)"/><path class="a" d="M17.78,20a1.78,1.78,0,1,1,0,3.559H16" transform="translate(-9.327 -11.547)"/><line class="b" y2="1.335" transform="translate(8.453 3.559)"/><line class="b" y2="1.335" transform="translate(8.453 12.012)"/></g></svg>