<svg xmlns="http://www.w3.org/2000/svg" width="64.609" height="74.547" viewBox="0 0 64.609 74.547"><defs><style>.a,.b{fill:none;stroke-linecap:round;stroke-linejoin:round;stroke-miterlimit:10;stroke-width:2.5px;}.a{stroke:#41d3bd;}.b{stroke:#666;}</style></defs><g transform="translate(0.25 0.25)"><g transform="translate(27.086 32.055)"><path class="a" d="M27.59,40.18a5.59,5.59,0,0,1,0-11.18h5.59" transform="translate(-22 -25.273)"/><path class="a" d="M27.59,38a5.59,5.59,0,0,1,0,11.18H22" transform="translate(-22 -23.094)"/><line class="a" y2="3.727" transform="translate(4.969)"/><line class="a" y2="3.727" transform="translate(4.969 26.086)"/></g><path class="b" d="M63.109,48.421c0,14.534-6.584,20.993-21.117,20.993H22.614C8.08,69.414,1,62.83,1,48.3H1C1,33.763,22.117,16,22.117,16H41.992S63.109,33.763,63.109,48.421Z" transform="translate(0 3.633)"/><path class="b" d="M19.455,19.633S8.151,4.727,13.368,1.248C15.356-.118,18.337,6.093,20.7,6.093,23.181,6.093,24.175,1,28.15,1c3.727,0,5.093,3.727,7.453,3.727C39.827,4.727,40.075,1,44.3,1c4.845,0,2.981,11.18-4.969,18.633" transform="translate(2.662)"/></g></svg>