<svg xmlns="http://www.w3.org/2000/svg" width="96" height="95.695" viewBox="0 0 96 95.695"><defs><style>.a,.b{fill:none;stroke-linecap:round;stroke-linejoin:round;stroke-width:2px;}.a{stroke:#666;}.b{stroke:#ccc;}</style></defs><g transform="translate(-159 -406)"><rect class="a" width="19.405" height="4.478" transform="translate(203.659 464.408)"/><rect class="a" width="19.405" height="4.478" transform="translate(199.927 468.886)"/><rect class="a" width="19.405" height="4.478" transform="translate(200.673 459.93)"/><rect class="a" width="19.405" height="4.478" transform="translate(204.405 455.452)"/><path class="a" d="M2257.2,2492.365H2246v-25.408h43.288v25.408h-.746" transform="translate(-2061 -2027.957)"/><path class="a" d="M2267.372,2484.01a7.7,7.7,0,0,1-.33-2.243c0-3.694,2.576-6.808,5.66-6.808s5.5,3.114,5.5,6.808" transform="translate(-2066.337 -2029.987)"/><line class="a" x2="2.239" transform="translate(190.224 459.93)"/><line class="a" x2="2.239" transform="translate(220.825 443.511)"/><line class="b" x1="10" y2="11" transform="translate(241 417.695)"/><line class="b" x1="10" y1="10" transform="translate(241 478.695)"/><line class="b" y1="10" x2="11" transform="translate(163 478.695)"/><line class="b" x2="11" y2="11" transform="translate(163 417.695)"/><line class="b" x1="6" transform="translate(248 453.5)"/><line class="b" x2="7" transform="translate(160 453.5)"/><line class="b" x1="5.432" transform="translate(206.5 495.264) rotate(90)"/><line class="b" x2="6.79" transform="translate(206.5 407) rotate(90)"/></g></svg>