<?xml version="1.0" encoding="iso-8859-1"?>
<!-- Generator: Adobe Illustrator 22.0.1, SVG Export Plug-In . SVG Version: 6.00 Build 0)  -->
<svg 
	version="1.1" 
	id="Layer_1" 
	xmlns="http://www.w3.org/2000/svg" 
	xmlns:xlink="http://www.w3.org/1999/xlink" 
	width="26.2" height="26.2"
	viewBox="0 0 60 60" 
	xml:space="preserve">
<path d="M9.84,27.489v9.724H7.372v-9.724H9.84z M23.611,32.29c0,1.421-0.516,2.626-1.534,3.581
	c-1.016,0.953-2.282,1.436-3.765,1.436c-1.483,0-2.749-0.483-3.765-1.436c-1.018-0.955-1.534-2.16-1.534-3.581
	c0-1.421,0.516-2.626,1.534-3.581c1.016-0.953,2.282-1.436,3.765-1.436c1.483,0,2.749,0.483,3.765,1.436
	C23.095,29.665,23.611,30.87,23.611,32.29z M21.102,32.297c0-0.803-0.271-1.497-0.807-2.063c-0.533-0.564-1.198-0.85-1.976-0.85
	c-0.778,0-1.442,0.286-1.976,0.85c-0.535,0.566-0.807,1.26-0.807,2.063c0,0.803,0.271,1.494,0.806,2.055
	c0.533,0.56,1.198,0.843,1.976,0.843c0.778,0,1.443-0.284,1.976-0.843C20.83,33.792,21.102,33.1,21.102,32.297z M32.876,27.489
	v5.356c0,0.721-0.172,1.294-0.51,1.705c-0.337,0.408-0.783,0.606-1.365,0.606c-0.582,0-1.031-0.198-1.372-0.607h0
	c-0.343-0.41-0.517-0.983-0.517-1.704v-5.356h-2.468v5.423c0,1.394,0.415,2.488,1.232,3.25c0.815,0.76,1.866,1.145,3.125,1.145
	c1.259,0,2.308-0.383,3.118-1.139c0.813-0.758,1.225-1.854,1.225-3.257v-5.423H32.876z M45.03,27.489v5.356
	c0,0.721-0.172,1.294-0.51,1.705c-0.337,0.408-0.783,0.606-1.365,0.606c-0.582,0-1.031-0.198-1.372-0.607h0
	c-0.343-0.41-0.517-0.983-0.517-1.704v-5.356h-2.468v5.423c0,1.394,0.415,2.488,1.232,3.25c0.815,0.76,1.866,1.145,3.125,1.145
	c1.259,0,2.308-0.383,3.118-1.139c0.813-0.758,1.225-1.854,1.225-3.257v-5.423H45.03z M52.836,35.052
	c-0.264-0.254-0.592-0.383-0.974-0.383c-0.382,0-0.709,0.129-0.974,0.383c-0.266,0.255-0.401,0.573-0.401,0.943
	c0,0.371,0.135,0.688,0.401,0.943c0.264,0.254,0.592,0.383,0.974,0.383c0.382,0,0.709-0.129,0.974-0.383
	c0.266-0.255,0.401-0.573,0.401-0.943C53.237,35.625,53.102,35.307,52.836,35.052z M57.924,16.044v28.134H2.202V16.044H0.563v29.773
	h1.639h55.722h1.639V16.044H57.924z"/>
</svg>
