<svg xmlns="http://www.w3.org/2000/svg" width="17.994" height="15.559" viewBox="0 0 17.994 15.559"><path d="M17.985,67.713q-.12,2.627-3.671,7.193Q10.645,79.678,8.1,79.677q-1.572,0-2.663-2.9c-1.414-5.189-2.016-8.229-3.185-8.229a5.606,5.606,0,0,0-1.414.847L0,68.3c2.072-1.819,4.052-3.844,5.294-3.956q2.1-.2,2.587,2.872C9.033,74.5,9.543,75.6,11.639,72.3a7.091,7.091,0,0,0,1.213-2.715c.193-1.844-1.438-1.719-2.542-1.245Q11.635,64,15.379,64.122c1.839.048,2.711,1.249,2.607,3.591Z" transform="translate(0 -64.119)"/></svg>