<svg xmlns="http://www.w3.org/2000/svg" width="19.607" height="23.4" viewBox="0 0 19.607 23.4"><defs><style>.a,.b{fill:none;stroke:#000;stroke-linecap:round;stroke-miterlimit:10;stroke-width:1.4px;}.a{stroke-linejoin:round;}</style></defs><g transform="translate(-0.3 -0.3)"><path class="a" d="M19.207,34.655a.761.761,0,0,1-.759.759H1.759A.761.761,0,0,1,1,34.655v-12.9A.761.761,0,0,1,1.759,21h16.69a.761.761,0,0,1,.759.759Z" transform="translate(0 -12.414)"/><circle class="b" cx="1.138" cy="1.138" r="1.138" transform="translate(8.966 13.138)"/><line class="b" y2="3.034" transform="translate(10.103 15.414)"/><line class="a" y2="2.276" transform="translate(15.414 6.31)"/><line class="a" y1="2.276" transform="translate(4.793 6.31)"/><path class="a" d="M11,6.31a5.31,5.31,0,1,1,10.621,0" transform="translate(-6.207)"/></g></svg>