<svg xmlns="http://www.w3.org/2000/svg" width="23.2" height="17.131" viewBox="0 0 23.2 17.131"><defs><style>.a{fill:none;stroke:#fff;stroke-linecap:round;stroke-linejoin:round;stroke-width:1.2px;}</style></defs><g transform="translate(-1590.4 -2365.567)"><g transform="translate(1591 2366.167)"><rect class="a" width="7.586" height="4.552" transform="translate(0 5.673)"/><line class="a" x1="1.517" transform="translate(4.552 7.949)"/><g transform="translate(2.275)"><path class="a" d="M1597,2371.79v-4.175a1.433,1.433,0,0,1,1.409-1.448h16.906a1.434,1.434,0,0,1,1.409,1.448v13.034a1.434,1.434,0,0,1-1.409,1.449h-16.906a1.433,1.433,0,0,1-1.409-1.449v-4.174" transform="translate(-1596.999 -2366.167)"/></g></g><g transform="translate(1603.138 2370.213)"><g transform="translate(0 0)"><path class="a" d="M1624.469,2382.357a1.47,1.47,0,0,1,0-2.94h1.47" transform="translate(-1623 -2378.437)"/><path class="a" d="M1624.469,2387.167a1.47,1.47,0,1,1,0,2.939H1623" transform="translate(-1623 -2383.247)"/><line class="a" y2="0.98" transform="translate(1.306)"/><line class="a" y2="0.98" transform="translate(1.306 6.859)"/></g></g></g></svg>